:SAMPLES-PER-SECOND 30
:FULLY-SPECIFIED
:DEGREES
123
root  -15.5173 40.8691 -12.1374 -0.112518 -77.236 -3.15375
RightUpLeg  4.35532 -9.05743 -4.40206
RightLeg  6.39464 -16.3083 3.2037
RightFoot  -4.71437 -0.0637614 0.504912
RightToes  0.00048216 0.542163 -0.142577
Spine  0.53365 2.28906 9.09993
Spine1  16.3642 4.39071 -4.87905
HEad  -15.5338 -14.367 -2.81859
LeftShoulder1  7.67986 -11.8832 -43.4161
LeftArm  -12.8997 21.1852 -30.6964
LeftForeArm  33.0833 -21.5379 -3.15288
LeftHand  -0.25398 0.0180481 5.50724
RightShoulder  5.80702 9.21284 39.5506
RightArm  -27.3068 -10.0353 33.7485
RightForeArm  5.64703 -0.70008 0.110807
RightHand  -0.528711 -0.415222 -12.3363
LeftUpLeg  3.229 6.31901 10.3685
LeftLeg  4.08622 -5.27419 -0.977205
LeftFoot  -2.99649 0.512042 -6.76827
LeftToes  1.06246e-005 4.65855e-005 -8.18503e-006
124
root  -15.4846 40.8878 -11.9994 -0.526688 -77.2279 -2.49286
RightUpLeg  4.24299 -9.08151 -4.71868
RightLeg  6.0831 -16.2541 3.19031
RightFoot  -4.52269 -0.0865654 0.868529
RightToes  0.00048216 0.542163 -0.142577
Spine  0.731129 2.10104 8.81729
Spine1  16.4189 4.04562 -4.45645
HEad  -15.6836 -14.2105 -2.61676
LeftShoulder1  7.53022 -11.6573 -43.191
LeftArm  -13.8458 19.4875 -30.4451
LeftForeArm  33.5467 -24.3439 -3.44051
LeftHand  -0.25398 0.0180481 5.50724
RightShoulder  5.88718 9.34988 39.6818
RightArm  -24.0429 -17.5422 32.9763
RightForeArm  9.36617 2.08449 1.12521
RightHand  -0.597692 -0.139422 -13.0842
LeftUpLeg  3.10599 6.24054 10.0056
LeftLeg  3.83904 -5.10832 -1.10828
LeftFoot  -2.87136 0.497196 -6.47826
LeftToes  1.06246e-005 4.65855e-005 -8.18503e-006
125
root  -15.448 40.9039 -11.8642 -0.949173 -77.1005 -1.68379
RightUpLeg  3.93956 -9.12593 -5.03863
RightLeg  5.87183 -16.3215 3.14195
RightFoot  -4.35174 -0.109593 1.2263
RightToes  0.00048216 0.542163 -0.142577
Spine  0.628681 1.55953 7.85573
Spine1  16.5592 3.12044 -3.45787
HEad  -16.0368 -13.0291 -2.68823
LeftShoulder1  7.35372 -11.3284 -43.1078
LeftArm  -15.8353 18.4516 -29.9938
LeftForeArm  34.6705 -27.676 -4.10265
LeftHand  -0.25398 0.0180481 5.50724
RightShoulder  5.75589 9.23303 39.0972
RightArm  -18.2477 -24.2677 32.3407
RightForeArm  12.6527 7.73626 3.30217
RightHand  -0.887791 1.26903 -15.6226
LeftUpLeg  2.7351 6.09175 9.55771
LeftLeg  3.69868 -4.93824 -1.21154
LeftFoot  -2.73292 0.48075 -6.16704
LeftToes  1.06246e-005 4.65855e-005 -8.18503e-006
126
root  -15.4141 40.925 -11.731 -1.42281 -77.1372 -0.892456
RightUpLeg  3.70297 -9.12342 -5.32559
RightLeg  5.61006 -16.294 3.05391
RightFoot  -4.1018 -0.12764 1.49743
RightToes  0.00048216 0.542163 -0.142577
Spine  0.271623 0.752622 6.27458
Spine1  16.859 1.74441 -1.97981
HEad  -16.0268 -11.0375 -2.8768
LeftShoulder1  7.18677 -10.995 -43.0946
LeftArm  -18.0811 18.1328 -29.4959
LeftForeArm  35.6881 -31.0894 -4.81499
LeftHand  -0.25398 0.0180481 5.50724
RightShoulder  5.42071 8.85695 37.814
RightArm  -10.7357 -28.3508 31.7644
RightForeArm  13.8142 11.1917 5.31185
RightHand  -0.943886 1.58647 -15.7963
LeftUpLeg  2.55421 5.9925 9.1613
LeftLeg  3.4192 -4.66422 -1.35765
LeftFoot  -2.53432 0.466608 -5.85971
LeftToes  1.06246e-005 4.65855e-005 -8.18503e-006
127
root  -15.3691 40.951 -11.5975 -1.79044 -77.7043 -0.387085
RightUpLeg  3.59224 -9.06778 -5.56294
RightLeg  5.25693 -15.8078 3.00316
RightFoot  -3.7439 -0.139606 1.6648
RightToes  0.00048216 0.542163 -0.142577
Spine  0.13039 0.00643193 4.94237
Spine1  17.0441 0.566472 -0.910568
HEad  -15.5325 -8.91783 -2.83359
LeftShoulder1  7.00657 -10.6996 -42.8726
LeftArm  -19.719 17.9587 -29.099
LeftForeArm  36.3437 -33.7944 -5.42439
LeftHand  -0.25398 0.0180481 5.50724
RightShoulder  5.05219 8.44691 36.2874
RightArm  -3.86819 -30.4704 31.6663
RightForeArm  15.3797 12.4504 6.3099
RightHand  -0.681715 0.513073 -13.4338
LeftUpLeg  2.75305 6.02556 8.92598
LeftLeg  2.98468 -4.06776 -1.57449
LeftFoot  -2.32391 0.454328 -5.58245
LeftToes  1.06246e-005 4.65855e-005 -8.18503e-006
